<svg width="1130" height="88" viewBox="0 0 1130 88" fill="none" xmlns="http://www.w3.org/2000/svg">
<path d="M48.9341 59.7764V68.7956H43.465C40.2028 68.7956 37.9 68.124 36.5567 66.7807C35.1174 65.4374 34.4458 63.5184 34.4458 60.9278C30.7038 66.5888 25.3306 69.3713 18.2304 69.3713C12.6653 69.3713 8.25164 68.124 4.98936 65.5334C1.63114 63.0387 0 59.4886 0 54.9789C0 49.9896 1.72709 46.0557 5.37316 43.3691C8.92328 40.6825 14.1045 39.2433 21.0129 39.2433H33.3904V36.2688C33.3904 33.5823 32.4309 31.3754 30.5119 29.8402C28.5929 28.305 25.9063 27.4415 22.5481 27.4415C19.4777 27.4415 16.983 28.1131 15.064 29.4564C13.1451 30.7997 11.9937 32.5268 11.6099 34.6377H1.43924C1.91899 29.7443 4.12582 25.9063 7.96379 23.2197C11.8018 20.5331 16.7911 19.0939 23.0278 19.0939C29.5524 19.0939 34.6377 20.6291 38.2838 23.6995C41.8339 26.7699 43.6569 31.1835 43.6569 36.9405V56.3222C43.6569 58.625 44.7124 59.7764 46.9192 59.7764H48.9341ZM33.3904 46.9192H20.5331C17.2709 46.9192 14.8721 47.5908 13.1451 48.8382C11.418 50.0855 10.5544 51.9086 10.5544 54.3073C10.5544 56.4182 11.322 58.1453 12.9532 59.3926C14.5843 60.7359 16.7911 61.3116 19.6696 61.3116C23.8914 61.3116 27.2496 60.1602 29.6483 57.8574C32.0471 55.5546 33.2944 52.4843 33.3904 48.6463V46.9192Z" fill="#0A0A0A"/>
<path d="M52.6597 1.63113H63.0222V68.7956H52.6597V1.63113Z" fill="#0A0A0A"/>
<path d="M80.952 1.82304C82.1033 2.97442 82.775 4.50962 82.775 6.2367C82.775 8.05974 82.1033 9.59493 80.952 10.7463C79.7046 11.8977 78.1694 12.4734 76.4423 12.4734C74.6193 12.4734 73.0841 11.8977 71.9327 10.7463C70.6854 9.59493 70.1097 8.05974 70.1097 6.2367C70.1097 4.50962 70.6854 2.97442 71.9327 1.82304C73.0841 0.671642 74.6193 0 76.4423 0C78.1694 0 79.7046 0.671642 80.952 1.82304ZM71.2611 19.6696H81.6236V68.7956H71.2611V19.6696Z" fill="#0A0A0A"/>
<path d="M93.0288 19.6696V14.7762C93.0288 10.4585 94.0843 7.1962 96.3871 4.98936C98.5939 2.78253 102.048 1.63113 106.75 1.63113H116.728V10.7463H108.189C106.462 10.7463 105.31 11.1301 104.543 11.8977C103.775 12.6653 103.487 13.9126 103.487 15.5438V19.6696H116.632V28.7848H103.487V68.7956H93.0288V28.7848H84.4893V19.6696H93.0288Z" fill="#0A0A0A"/>
<path d="M123.254 4.98936C125.46 2.78253 128.915 1.63113 133.616 1.63113H143.499V10.7463H135.055C133.328 10.7463 132.177 11.1301 131.409 11.8977C130.642 12.6653 130.258 13.9126 130.258 15.5438V19.6696H143.403V28.7848H130.258V68.7956H119.895V14.7762C119.895 10.4585 120.951 7.1962 123.254 4.98936Z" fill="#0A0A0A"/>
<path d="M156.34 1.82304C157.491 2.97442 158.163 4.50962 158.163 6.2367C158.163 8.05974 157.491 9.59493 156.34 10.7463C155.092 11.8977 153.557 12.4734 151.83 12.4734C150.007 12.4734 148.472 11.8977 147.32 10.7463C146.073 9.59493 145.497 8.05974 145.497 6.2367C145.497 4.50962 146.073 2.97442 147.32 1.82304C148.472 0.671642 150.007 0 151.83 0C153.557 0 155.092 0.671642 156.34 1.82304ZM146.649 19.6696H157.011V68.7956H146.649V19.6696Z" fill="#0A0A0A"/>
<path d="M192.404 19.6696V29.3605H187.798C183.481 29.3605 180.41 30.7997 178.491 33.5823C176.572 36.3648 175.613 39.9149 175.613 44.1367V68.7956H165.25V19.6696H174.461L175.613 27.0577C176.956 24.7549 178.779 23.0278 181.082 21.6845C183.289 20.3413 186.263 19.6696 190.101 19.6696H192.404Z" fill="#0A0A0A"/>
<path d="M242.408 1.63113V68.7956H233.388L232.141 61.4075C228.207 66.7807 222.834 69.3713 216.118 69.3713C211.608 69.3713 207.578 68.4118 204.124 66.3969C200.574 64.382 197.791 61.5035 195.872 57.6655C193.857 53.8276 192.898 49.4139 192.898 44.2326C192.898 39.2433 193.857 34.9255 195.872 31.0876C197.887 27.2496 200.67 24.3711 204.22 22.2602C207.674 20.1494 211.704 19.0939 216.118 19.0939C219.668 19.0939 222.834 19.7656 225.521 21.1088C228.207 22.4521 230.318 24.1792 232.045 26.482V1.63113H242.408ZM228.207 56.1303C230.798 53.1559 232.141 49.222 232.141 44.4245C232.141 39.5311 230.798 35.5972 228.207 32.5268C225.521 29.4564 222.066 27.9212 217.845 27.9212C213.527 27.9212 210.073 29.4564 207.482 32.5268C204.795 35.5972 203.548 39.4352 203.548 44.2326C203.548 49.126 204.795 53.06 207.482 56.1303C210.073 59.2007 213.527 60.64 217.845 60.64C222.066 60.64 225.521 59.2007 228.207 56.1303Z" fill="#0A0A0A"/>
<path d="M297.63 59.7764V68.7956H292.161C288.899 68.7956 286.596 68.124 285.253 66.7807C283.813 65.4374 283.142 63.5184 283.142 60.9278C279.4 66.5888 274.027 69.3713 266.926 69.3713C261.361 69.3713 256.948 68.124 253.685 65.5334C250.327 63.0387 248.696 59.4886 248.696 54.9789C248.696 49.9896 250.423 46.0557 254.069 43.3691C257.619 40.6825 262.801 39.2433 269.709 39.2433H282.086V36.2688C282.086 33.5823 281.127 31.3754 279.208 29.8402C277.289 28.305 274.602 27.4415 271.244 27.4415C268.174 27.4415 265.679 28.1131 263.76 29.4564C261.841 30.7997 260.69 32.5268 260.306 34.6377H250.135C250.615 29.7443 252.822 25.9063 256.66 23.2197C260.498 20.5331 265.487 19.0939 271.724 19.0939C278.248 19.0939 283.334 20.6291 286.98 23.6995C290.53 26.7699 292.353 31.1835 292.353 36.9405V56.3222C292.353 58.625 293.408 59.7764 295.615 59.7764H297.63ZM282.086 46.9192H269.229C265.967 46.9192 263.568 47.5908 261.841 48.8382C260.114 50.0855 259.25 51.9086 259.25 54.3073C259.25 56.4182 260.018 58.1453 261.649 59.3926C263.28 60.7359 265.487 61.3116 268.366 61.3116C272.587 61.3116 275.946 60.1602 278.344 57.8574C280.743 55.5546 281.99 52.4843 282.086 48.6463V46.9192Z" fill="#0A0A0A"/>
<path d="M345.396 19.6696V68.7956H336.281L335.13 62.5589C331.388 67.1645 326.303 69.3713 319.97 69.3713C314.213 69.3713 309.511 67.6443 305.961 63.9982C302.315 60.4481 300.588 54.6911 300.588 46.7273V19.6696H310.951V45.6719C310.951 50.4693 311.91 54.1154 313.829 56.6101C315.748 59.1048 318.531 60.3521 322.369 60.3521C326.303 60.3521 329.373 58.9129 331.676 56.0344C333.883 53.1559 335.034 49.126 335.034 44.0407V19.6696H345.396Z" fill="#0A0A0A"/>
<path d="M361.941 52.5802C362.133 55.1708 363.284 57.2817 365.491 58.9129C367.698 60.544 370.576 61.3116 374.126 61.3116C377.197 61.3116 379.787 60.7359 381.706 59.5845C383.625 58.4331 384.681 56.802 384.681 54.787C384.681 53.1559 384.201 51.9086 383.338 51.045C382.378 50.2774 381.227 49.7017 379.692 49.3179C378.156 48.9341 375.854 48.5503 372.783 48.1665C368.465 47.6868 364.915 47.0152 362.133 46.1516C359.35 45.2881 357.143 43.9448 355.416 42.0258C353.689 40.1068 352.922 37.6121 352.922 34.3498C352.922 31.3754 353.689 28.6888 355.416 26.3861C357.143 24.0833 359.446 22.2602 362.421 20.9169C365.395 19.6696 368.753 18.998 372.591 18.998C378.732 18.998 383.817 20.4372 387.655 23.1238C391.493 25.9063 393.604 29.7443 393.988 34.7336H383.913C383.625 32.5268 382.474 30.7038 380.555 29.2645C378.54 27.8253 376.045 27.0577 373.071 27.0577C370.001 27.0577 367.602 27.6334 365.779 28.7848C363.86 29.9362 362.996 31.5673 362.996 33.4863C362.996 35.0215 363.38 36.0769 364.34 36.8445C365.299 37.6121 366.451 38.0919 367.89 38.3797C369.233 38.6676 371.536 38.9554 374.702 39.3392C378.924 39.819 382.474 40.4906 385.353 41.4501C388.231 42.4096 390.534 43.8488 392.261 45.8638C393.988 47.8787 394.852 50.5653 394.852 54.0195C394.852 57.0898 393.892 59.8724 392.165 62.1751C390.342 64.4779 387.847 66.301 384.777 67.5483C381.611 68.7956 378.06 69.3713 374.222 69.3713C367.602 69.3713 362.229 67.9321 358.199 64.9577C354.169 61.9832 352.058 57.8574 351.962 52.5802H361.941Z" fill="#0A0A0A"/>
<path d="M406.807 23.9873C410.741 17.6547 416.114 12.6653 422.926 9.01923C429.643 5.37316 437.127 3.55012 445.283 3.55012C453.15 3.55012 460.155 5.08531 466.296 8.05974C472.436 11.0342 477.234 15.16 480.688 20.4372C484.142 25.8104 485.869 31.7592 485.869 38.4757C485.869 43.465 484.91 47.9746 482.991 51.8126C481.072 55.7465 478.385 58.8169 475.123 60.9278C471.765 63.1346 468.023 64.1901 463.897 64.1901C461.018 64.1901 458.716 63.5184 456.988 62.0792C455.261 60.7359 454.206 58.9129 453.822 56.802L453.63 55.4587C452.383 58.1453 450.368 60.2562 447.681 61.7913C444.995 63.3265 441.924 64.0941 438.662 64.0941C435.592 64.0941 432.809 63.4225 430.315 61.8873C427.82 60.3521 425.805 58.2412 424.366 55.4587C422.831 52.6762 422.159 49.4139 422.159 45.7678C422.159 41.7379 423.022 38.0919 424.749 34.6377C426.477 31.2795 428.875 28.5929 431.946 26.6739C434.92 24.7549 438.182 23.6995 441.828 23.6995C445.187 23.6995 447.969 24.3711 450.08 25.6185C452.191 26.9617 453.63 28.4969 454.302 30.4159L455.933 24.4671H464.089L461.21 51.5248C461.114 51.9086 461.114 52.2924 461.114 52.8681C461.114 56.1303 462.649 57.6655 465.816 57.6655C467.735 57.6655 469.654 56.8979 471.381 55.1708C473.108 53.4438 474.547 51.141 475.603 48.0706C476.658 45.0962 477.234 41.8339 477.234 38.1878C477.234 32.8147 475.89 28.0172 473.3 23.7954C470.613 19.6696 466.871 16.5033 462.074 14.2005C457.18 11.8977 451.519 10.7463 445.091 10.7463C438.566 10.7463 432.617 12.2815 427.148 15.3519C421.679 18.4223 417.361 22.5481 414.195 27.8253C410.933 33.1025 409.398 38.8595 409.398 45.1921C409.398 51.7167 410.741 57.3777 413.523 62.0792C416.306 66.7807 420.336 70.3308 425.613 72.8255C430.794 75.3202 437.031 76.4716 444.227 76.4716C452.383 76.4716 459.579 74.6486 465.816 71.0025L465.528 78.8703C463.033 80.4055 459.867 81.6528 456.029 82.5164C452.095 83.4759 447.873 83.8597 443.364 83.8597C435.112 83.8597 427.724 82.3245 421.295 79.1582C414.867 76.0878 409.877 71.5782 406.231 65.7253C402.585 59.9683 400.858 53.1559 400.858 45.384C400.858 37.5162 402.777 30.4159 406.807 23.9873ZM450.752 33.7742C449.025 32.0471 446.722 31.0876 443.939 31.0876C441.637 31.0876 439.622 31.7592 437.799 33.0066C435.88 34.3498 434.44 36.0769 433.385 38.1878C432.234 40.2987 431.754 42.6974 431.754 45.1921C431.754 48.6463 432.617 51.4288 434.44 53.4438C436.263 55.5546 438.566 56.5141 441.445 56.5141C443.556 56.5141 445.57 55.9384 447.394 54.6911C449.217 53.4438 450.656 51.6207 451.711 49.3179C452.767 47.0152 453.342 44.4245 453.342 41.3541C453.342 38.0919 452.479 35.5972 450.752 33.7742Z" fill="#0A0A0A"/>
<path d="M531.872 22.1643C535.326 24.1792 538.108 27.0577 540.123 30.8957C542.042 34.7336 543.098 39.1473 543.098 44.2326C543.098 49.222 542.042 53.6357 540.123 57.4736C538.108 61.3116 535.326 64.1901 531.872 66.301C528.321 68.4118 524.292 69.3713 519.878 69.3713C516.232 69.3713 513.066 68.6997 510.379 67.3564C507.692 66.0131 505.486 64.1901 503.95 61.8873V87.9855H493.588V19.6696H502.607L503.854 26.9617C507.788 21.7805 513.162 19.0939 519.878 19.0939C524.292 19.0939 528.321 20.1493 531.872 22.1643ZM528.513 56.0344C531.2 52.964 532.543 49.0301 532.543 44.2326C532.543 39.4352 531.2 35.5012 528.513 32.4309C525.827 29.4564 522.373 27.9212 518.151 27.9212C513.833 27.9212 510.379 29.4564 507.788 32.4309C505.102 35.4053 503.854 39.2433 503.854 44.0407C503.854 49.0301 505.102 52.964 507.788 56.0344C510.379 59.1048 513.833 60.64 518.151 60.64C522.373 60.64 525.827 59.1048 528.513 56.0344Z" fill="#0A0A0A"/>
<path d="M550.633 31.0876C552.648 27.2496 555.431 24.3711 559.077 22.2602C562.723 20.1494 566.849 19.0939 571.55 19.0939C576.252 19.0939 580.378 20.0534 584.024 21.9724C587.67 23.8914 590.452 26.6739 592.563 30.1281C594.674 33.6782 595.73 37.804 595.826 42.5055C595.826 43.8488 595.73 45.0962 595.538 46.4395H558.501V47.0152C558.693 51.3329 560.036 54.6911 562.531 57.1858C564.93 59.6805 568.192 60.9278 572.222 60.9278C575.388 60.9278 578.075 60.2562 580.282 58.721C582.393 57.1858 583.832 55.0749 584.599 52.2924H594.962C594.002 57.2817 591.604 61.4075 587.67 64.5739C583.736 67.8361 578.843 69.3713 572.99 69.3713C567.808 69.3713 563.395 68.4118 559.557 66.301C555.719 64.1901 552.84 61.3116 550.729 57.4736C548.618 53.7316 547.659 49.3179 547.659 44.3286C547.659 39.3392 548.619 34.9255 550.633 31.0876ZM585.271 38.8595C584.791 35.3093 583.352 32.5268 580.953 30.5119C578.555 28.4969 575.58 27.4415 571.934 27.4415C568.48 27.4415 565.602 28.4969 563.107 30.6078C560.612 32.7187 559.269 35.4053 558.885 38.8595H585.271Z" fill="#0A0A0A"/>
<path d="M605.076 28.7848H596.536V19.6696H605.076V5.94885H615.534V19.6696H627.336V28.7848H615.534V54.4032C615.534 56.3222 615.918 57.7615 616.686 58.5291C617.453 59.2967 618.7 59.6805 620.619 59.6805H628.487V68.7956H618.509C613.807 68.7956 610.353 67.7402 608.242 65.5334C606.131 63.4225 605.076 60.0643 605.076 55.4587V28.7848Z" fill="#0A0A0A"/>
<path d="M678.583 59.7764V68.7956H673.113C669.851 68.7956 667.548 68.124 666.205 66.7807C664.766 65.4374 664.094 63.5184 664.094 60.9278C660.352 66.5888 654.979 69.3713 647.879 69.3713C642.314 69.3713 637.9 68.124 634.638 65.5334C631.28 63.0387 629.648 59.4886 629.648 54.9789C629.648 49.9896 631.375 46.0557 635.022 43.3691C638.572 40.6825 643.753 39.2433 650.661 39.2433H663.039V36.2688C663.039 33.5823 662.079 31.3754 660.16 29.8402C658.241 28.305 655.555 27.4415 652.196 27.4415C649.126 27.4415 646.631 28.1131 644.712 29.4564C642.793 30.7997 641.642 32.5268 641.258 34.6377H631.088C631.567 29.7443 633.774 25.9063 637.612 23.2197C641.45 20.5331 646.44 19.0939 652.676 19.0939C659.201 19.0939 664.286 20.6291 667.932 23.6995C671.482 26.7699 673.305 31.1835 673.305 36.9405V56.3222C673.305 58.625 674.361 59.7764 676.568 59.7764H678.583ZM663.039 46.9192H650.182C646.919 46.9192 644.521 47.5908 642.793 48.8382C641.066 50.0855 640.203 51.9086 640.203 54.3073C640.203 56.4182 640.97 58.1453 642.602 59.3926C644.233 60.7359 646.439 61.3116 649.318 61.3116C653.54 61.3116 656.898 60.1602 659.297 57.8574C661.695 55.5546 662.943 52.4843 663.039 48.6463V46.9192Z" fill="#0A0A0A"/>
<path d="M722.415 24.4671C726.061 28.1131 727.98 33.8701 727.98 41.7379V68.7956H717.522V42.3136C717.522 37.7081 716.466 34.1579 714.547 31.6633C712.532 29.2645 709.654 28.0172 705.816 28.0172C701.69 28.0172 698.428 29.4564 696.125 32.3349C693.822 35.2134 692.671 39.0514 692.671 44.0407V68.7956H682.308V19.6696H691.327L692.479 26.0982C696.125 21.4926 701.402 19.0939 708.214 19.0939C713.971 19.0939 718.769 20.9169 722.415 24.4671Z" fill="#0A0A0A"/>
<path d="M745.176 1.82304C746.327 2.97442 746.999 4.50962 746.999 6.2367C746.999 8.05974 746.327 9.59493 745.176 10.7463C743.929 11.8977 742.393 12.4734 740.666 12.4734C738.843 12.4734 737.308 11.8977 736.157 10.7463C734.909 9.59493 734.334 8.05974 734.334 6.2367C734.334 4.50962 734.909 2.97442 736.157 1.82304C737.308 0.671642 738.843 0 740.666 0C742.393 0 743.929 0.671642 745.176 1.82304ZM735.485 19.6696H745.847V68.7956H735.485V19.6696Z" fill="#0A0A0A"/>
<path d="M749.385 19.6696H760.323L771.549 57.2817L782.775 19.6696H792.274L803.021 57.2817L814.63 19.6696H825.185L808.873 68.7956H797.743L787.381 35.4053L776.634 68.7956L765.408 68.8916L749.385 19.6696Z" fill="#0A0A0A"/>
<path d="M828.467 31.0876C830.481 27.2496 833.264 24.3711 836.91 22.2602C840.556 20.1494 844.682 19.0939 849.384 19.0939C854.085 19.0939 858.211 20.0534 861.857 21.9724C865.503 23.8914 868.285 26.6739 870.396 30.1281C872.507 33.6782 873.563 37.804 873.659 42.5055C873.659 43.8488 873.563 45.0962 873.371 46.4395H836.334V47.0152C836.526 51.3329 837.87 54.6911 840.364 57.1858C842.763 59.6805 846.025 60.9278 850.055 60.9278C853.222 60.9278 855.908 60.2562 858.115 58.721C860.226 57.1858 861.665 55.0749 862.433 52.2924H872.795C871.836 57.2817 869.437 61.4075 865.503 64.5739C861.569 67.8361 856.676 69.3713 850.823 69.3713C845.642 69.3713 841.228 68.4118 837.39 66.301C833.552 64.1901 830.673 61.3116 828.563 57.4736C826.452 53.7316 825.492 49.3179 825.492 44.3286C825.492 39.3392 826.452 34.9255 828.467 31.0876ZM863.104 38.8595C862.625 35.3093 861.185 32.5268 858.787 30.5119C856.388 28.4969 853.413 27.4415 849.767 27.4415C846.313 27.4415 843.435 28.4969 840.94 30.6078C838.445 32.7187 837.102 35.4053 836.718 38.8595H863.104Z" fill="#0A0A0A"/>
<path d="M918.401 22.1643C921.855 24.1792 924.638 27.0577 926.653 30.7997C928.572 34.6377 929.627 39.0514 929.627 44.2326C929.627 49.222 928.572 53.5397 926.653 57.3777C924.638 61.2156 921.855 64.0941 918.401 66.205C914.851 68.3159 910.821 69.3713 906.407 69.3713C902.761 69.3713 899.595 68.6997 896.908 67.3564C894.222 66.0131 892.015 64.0941 890.384 61.6954L889.136 68.7956H880.117V1.63113H890.48V26.9617C894.318 21.7805 899.691 19.0939 906.407 19.0939C910.821 19.0939 914.851 20.1493 918.401 22.1643ZM915.043 56.1303C917.729 53.06 919.073 49.126 919.073 44.2326C919.073 39.4352 917.729 35.5972 915.043 32.5268C912.356 29.4564 908.902 27.9212 904.68 27.9212C900.363 27.9212 896.908 29.4564 894.318 32.4309C891.631 35.5012 890.384 39.3392 890.384 44.1367C890.384 49.0301 891.631 52.964 894.318 56.0344C896.908 59.1048 900.363 60.64 904.68 60.64C908.902 60.64 912.356 59.2007 915.043 56.1303Z" fill="#0A0A0A"/>
<path d="M933.877 58.1453C935.124 56.9939 936.755 56.3222 938.674 56.3222C940.593 56.3222 942.128 56.9939 943.472 58.1453C944.719 59.3926 945.39 60.9278 945.39 62.8468C945.39 64.7658 944.719 66.3969 943.472 67.5483C942.128 68.7956 940.593 69.3713 938.674 69.3713C936.755 69.3713 935.124 68.7956 933.877 67.5483C932.629 66.3969 932.054 64.7658 932.054 62.8468C932.054 60.9278 932.629 59.3926 933.877 58.1453Z" fill="#0A0A0A"/>
<path d="M987.453 64.5739C983.423 67.8361 978.338 69.3713 972.197 69.3713C967.304 69.3713 962.986 68.4118 959.34 66.301C955.598 64.1901 952.719 61.2156 950.704 57.3777C948.69 53.5397 947.73 49.126 947.73 44.1367C947.73 39.1473 948.69 34.8296 950.8 30.9916C952.815 27.2496 955.694 24.3711 959.436 22.2602C963.178 20.1494 967.496 19.0939 972.485 19.0939C978.626 19.0939 983.615 20.725 987.549 23.9873C991.387 27.2496 993.882 31.5673 994.841 37.1324H984.191C983.423 34.3498 982.08 32.143 979.969 30.4159C977.858 28.7848 975.268 27.9212 972.197 27.9212C967.975 27.9212 964.617 29.4564 962.122 32.4309C959.628 35.5012 958.38 39.3392 958.38 44.1367C958.38 49.0301 959.628 52.964 962.122 56.0344C964.617 59.1048 967.975 60.544 972.197 60.544C975.363 60.544 978.05 59.7764 980.161 58.0493C982.272 56.3222 983.615 54.0195 984.287 51.141H994.841C993.882 56.8979 991.387 61.3116 987.453 64.5739Z" fill="#0A0A0A"/>
<path d="M1010.46 66.301C1006.62 64.1901 1003.75 61.3116 1001.63 57.4736C999.524 53.6357 998.564 49.222 998.564 44.2326C998.564 39.3392 999.524 35.0215 1001.63 31.1835C1003.75 27.3455 1006.62 24.3711 1010.46 22.2602C1014.3 20.1494 1018.62 19.0939 1023.61 19.0939C1028.5 19.0939 1032.82 20.1494 1036.66 22.2602C1040.49 24.3711 1043.37 27.3455 1045.48 31.1835C1047.59 35.0215 1048.65 39.3392 1048.65 44.2326C1048.65 49.222 1047.59 53.6357 1045.48 57.4736C1043.37 61.3116 1040.49 64.1901 1036.66 66.301C1032.82 68.4118 1028.5 69.3713 1023.61 69.3713C1018.62 69.3713 1014.3 68.4118 1010.46 66.301ZM1034.07 56.0344C1036.75 52.964 1038.1 49.0301 1038.1 44.2326C1038.1 39.4352 1036.75 35.5972 1034.07 32.5268C1031.38 29.4564 1027.92 27.9212 1023.61 27.9212C1019.19 27.9212 1015.74 29.4564 1013.15 32.5268C1010.46 35.5972 1009.21 39.4352 1009.21 44.2326C1009.21 49.0301 1010.46 52.964 1013.15 56.0344C1015.74 59.1048 1019.19 60.544 1023.61 60.544C1027.92 60.544 1031.38 59.1048 1034.07 56.0344Z" fill="#0A0A0A"/>
<path d="M1124.91 24.3711C1128.27 27.8253 1130 33.3904 1130 41.0663V68.7956H1119.64V41.1622C1119.64 36.9405 1118.77 33.6782 1117.05 31.3754C1115.32 29.1686 1112.73 28.0172 1109.37 28.0172C1105.72 28.0172 1102.94 29.3605 1100.83 31.8552C1098.72 34.3498 1097.76 37.804 1097.76 42.2177V68.7956H1087.3V41.1622C1087.3 36.8445 1086.34 33.5823 1084.62 31.3754C1082.89 29.1686 1080.3 28.0172 1076.94 28.0172C1073.39 28.0172 1070.61 29.3605 1068.5 31.9511C1066.39 34.6377 1065.43 38.0919 1065.43 42.5055V68.7956H1055.06V19.6696H1064.08L1065.23 26.0982C1068.69 21.4926 1073.49 19.1899 1079.63 19.0939C1083.08 19.0939 1086.06 19.8615 1088.74 21.3007C1091.33 22.8359 1093.35 25.0428 1094.79 28.0172C1096.51 25.2347 1098.72 23.0278 1101.6 21.4926C1104.38 19.9575 1107.74 19.0939 1111.77 19.0939C1117.14 19.0939 1121.46 20.9169 1124.91 24.3711Z" fill="#0A0A0A"/>
</svg>
