<svg width="1295" height="93" viewBox="0 0 1295 93" fill="none" xmlns="http://www.w3.org/2000/svg">
<path fill-rule="evenodd" clip-rule="evenodd" d="M655.175 19.9004C658.975 19.9004 662.375 20.7003 665.175 22.2002C667.975 23.8002 670.176 25.9 671.976 28.5L673.175 20.5H682.575V69.5996C682.575 76.7996 680.375 82.4004 676.175 86.4004C671.875 90.4001 665.275 92.2998 656.375 92.2998C649.375 92.2998 643.775 90.8 639.476 87.7002C635.076 84.6002 632.675 80.2 632.275 74.5H643.275C643.875 77.4 645.475 79.6002 647.875 81.2002C650.275 82.8001 653.375 83.5 657.175 83.5C666.975 83.5 671.875 78.8001 671.875 69.2002V63.5C668.075 69.0999 662.575 71.9004 655.175 71.9004C650.475 71.9003 646.275 70.8997 642.675 68.7998C638.975 66.6998 636.075 63.6997 634.075 59.7998C631.975 55.8999 630.976 51.3001 630.976 45.9004C630.976 40.8004 631.975 36.2998 634.075 32.2998C636.175 28.3999 639.075 25.4002 642.775 23.2002C646.375 21.0003 650.575 19.9005 655.175 19.9004ZM656.976 29C652.476 29 648.875 30.6002 646.175 33.7002C643.375 36.9001 642.075 40.9005 642.075 45.9004C642.075 50.9 643.375 54.9997 646.175 58.0996C648.875 61.2996 652.476 62.7998 656.976 62.7998C661.375 62.7997 664.975 61.3001 667.775 58.2002C670.475 55.1002 671.875 51.0996 671.875 46.0996C671.875 41.0998 670.475 36.9997 667.775 33.7998C664.975 30.5999 661.375 29.0001 656.976 29Z" fill="#0A0A0A"/>
<path fill-rule="evenodd" clip-rule="evenodd" d="M867.995 19.9004C871.795 19.9004 875.195 20.7003 877.995 22.2002C880.795 23.8002 882.996 25.9 884.796 28.5L885.995 20.5H895.396V69.5996C895.396 76.7996 893.195 82.4004 888.995 86.4004C884.695 90.4001 878.095 92.2998 869.195 92.2998C862.196 92.2998 856.596 90.8 852.296 87.7002C847.896 84.6002 845.496 80.2 845.096 74.5H856.096C856.696 77.4 858.295 79.6002 860.695 81.2002C863.095 82.8001 866.195 83.5 869.995 83.5C879.795 83.5 884.695 78.8001 884.695 69.2002V63.5C880.895 69.0999 875.395 71.9004 867.995 71.9004C863.295 71.9003 859.095 70.8997 855.495 68.7998C851.795 66.6998 848.895 63.6997 846.896 59.7998C844.796 55.8999 843.796 51.3001 843.796 45.9004C843.796 40.8004 844.796 36.2998 846.896 32.2998C848.996 28.3999 851.896 25.4002 855.596 23.2002C859.196 21.0003 863.395 19.9005 867.995 19.9004ZM869.796 29C865.296 29 861.695 30.6002 858.995 33.7002C856.195 36.9001 854.896 40.9005 854.896 45.9004C854.896 50.9 856.195 54.9997 858.995 58.0996C861.695 61.2996 865.296 62.7998 869.796 62.7998C874.196 62.7997 877.796 61.3001 880.596 58.2002C883.296 55.1002 884.695 51.0996 884.695 46.0996C884.695 41.0998 883.296 36.9997 880.596 33.7998C877.796 30.5999 874.196 29.0001 869.796 29Z" fill="#0A0A0A"/>
<path fill-rule="evenodd" clip-rule="evenodd" d="M794.351 3.7002C802.551 3.7002 809.851 5.30039 816.251 8.40039C822.651 11.5004 827.651 15.7999 831.251 21.2998C834.851 26.8997 836.651 33.0998 836.651 40.0996C836.651 45.2995 835.651 50 833.651 54C831.651 58.1 828.851 61.3 825.451 63.5C821.951 65.8 818.051 66.9004 813.751 66.9004C810.751 66.9004 808.351 66.2002 806.551 64.7002C804.751 63.3002 803.651 61.4001 803.251 59.2002L803.051 57.7998C801.751 60.5998 799.651 62.8004 796.851 64.4004C794.051 66.0002 790.851 66.7998 787.451 66.7998C784.251 66.7998 781.351 66.1 778.751 64.5C776.151 62.9 774.051 60.6998 772.551 57.7998C770.951 54.8999 770.251 51.5 770.251 47.7002C770.251 43.5002 771.151 39.6996 772.951 36.0996C774.751 32.5998 777.251 29.7997 780.451 27.7998C783.551 25.7999 786.951 24.7002 790.751 24.7002C794.251 24.7002 797.151 25.4003 799.351 26.7002C801.551 28.1002 803.051 29.7002 803.751 31.7002L805.451 25.5H813.951L810.951 53.7002C810.851 54.1001 810.851 54.4999 810.851 55.0996C810.851 58.4996 812.451 60.0996 815.751 60.0996C817.751 60.0996 819.751 59.2999 821.551 57.5C823.351 55.7 824.851 53.2996 825.951 50.0996C827.051 46.9997 827.651 43.5996 827.651 39.7998C827.651 34.1999 826.251 29.1998 823.551 24.7998C820.751 20.4999 816.85 17.1998 811.851 14.7998C806.751 12.4 800.851 11.2002 794.151 11.2002C787.351 11.2002 781.151 12.8 775.451 16C769.751 19.2 765.251 23.5 761.951 29C758.551 34.4999 756.951 40.4998 756.951 47.0996C756.951 53.8996 758.351 59.8002 761.251 64.7002C764.151 69.6001 768.351 73.3004 773.851 75.9004C779.251 78.5004 785.751 79.7002 793.251 79.7002C801.751 79.7002 809.251 77.8 815.751 74L815.451 82.2002C812.851 83.8002 809.551 85.1 805.551 86C801.451 87 797.051 87.4004 792.351 87.4004C783.751 87.4003 776.05 85.8 769.351 82.5C762.651 79.3 757.451 74.5998 753.651 68.5C749.851 62.5 748.051 55.3998 748.051 47.2998C748.051 39.0999 750.051 31.6999 754.251 25C758.351 18.4001 763.951 13.2004 771.051 9.40039C778.051 5.60045 785.851 3.70025 794.351 3.7002ZM792.951 32.4004C790.551 32.4004 788.451 33.1004 786.551 34.4004C784.551 35.8003 783.051 37.6 781.951 39.7998C780.751 41.9997 780.251 44.4997 780.251 47.0996C780.251 50.6996 781.151 53.6002 783.051 55.7002C784.951 57.9001 787.351 58.9003 790.351 58.9004C792.551 58.9004 794.651 58.2999 796.551 57C798.451 55.7001 799.951 53.8002 801.051 51.4004C802.151 49.0004 802.751 46.2996 802.751 43.0996C802.751 39.6998 801.851 37.1001 800.051 35.2002C798.251 33.4002 795.851 32.4004 792.951 32.4004Z" fill="#0A0A0A"/>
<path fill-rule="evenodd" clip-rule="evenodd" d="M24 19.9004C30.8 19.9004 36.1004 21.5002 39.9004 24.7002C43.6003 27.9002 45.5 32.5001 45.5 38.5V58.7002C45.5001 61.1001 46.6005 62.2998 48.9004 62.2998H51V71.7002H45.2998C41.9 71.7001 39.5005 70.9996 38.1006 69.5996C36.6006 68.1996 35.9004 66.2 35.9004 63.5C32.0004 69.4 26.4 72.2998 19 72.2998C13.2001 72.2998 8.60016 70.9998 5.2002 68.2998C1.70026 65.6998 0 61.9998 0 57.2998C4.48953e-05 52.0999 1.80063 48.0002 5.60059 45.2002C9.30058 42.4003 14.7005 40.9004 21.9004 40.9004H34.7998V37.7998C34.7998 34.9999 33.7998 32.6996 31.7998 31.0996C29.7998 29.4998 26.9997 28.5996 23.5 28.5996C20.3001 28.5996 17.7002 29.3002 15.7002 30.7002C13.7004 32.1001 12.5007 33.8998 12.1006 36.0996H1.5C2.00006 30.9999 4.30012 27.0001 8.2998 24.2002C12.2998 21.4002 17.5001 19.9004 24 19.9004ZM21.4004 48.9004C18.0004 48.9004 15.5002 49.6004 13.7002 50.9004C11.9004 52.2003 11.0001 54.0999 11 56.5996C11 58.7996 11.8 60.6004 13.5 61.9004C15.2 63.3003 17.5001 63.9004 20.5 63.9004C24.9 63.9004 28.4004 62.6998 30.9004 60.2998C33.4002 57.8999 34.6998 54.7 34.7998 50.7002V48.9004H21.4004Z" fill="#0A0A0A"/>
<path fill-rule="evenodd" clip-rule="evenodd" d="M259.642 71.7002H250.241L248.941 64C244.841 69.5999 239.241 72.2998 232.241 72.2998C227.541 72.2997 223.341 71.3001 219.741 69.2002C216.041 67.1002 213.142 64.0995 211.142 60.0996C209.042 56.0997 208.042 51.4995 208.042 46.0996C208.042 40.8999 209.042 36.4002 211.142 32.4004C213.242 28.4004 216.142 25.4002 219.842 23.2002C223.442 21.0003 227.641 19.9005 232.241 19.9004C235.941 19.9004 239.242 20.6 242.042 22C244.842 23.3999 247.042 25.1998 248.842 27.5996V1.7002H259.642V71.7002ZM234.042 29.0996C229.542 29.0996 225.941 30.7004 223.241 33.9004C220.442 37.1002 219.142 41.1 219.142 46.0996C219.142 51.1995 220.441 55.3 223.241 58.5C225.941 61.7 229.542 63.2002 234.042 63.2002C238.442 63.2001 242.042 61.6999 244.842 58.5C247.542 55.4 248.941 51.2998 248.941 46.2998C248.941 41.2001 247.542 37.1003 244.842 33.9004C242.042 30.7005 238.442 29.0997 234.042 29.0996Z" fill="#0A0A0A"/>
<path fill-rule="evenodd" clip-rule="evenodd" d="M291.195 19.9004C297.995 19.9004 303.296 21.5002 307.096 24.7002C310.796 27.9002 312.695 32.5001 312.695 38.5V58.7002C312.695 61.1001 313.796 62.2998 316.096 62.2998H318.195V71.7002H312.495C309.095 71.7001 306.696 70.9996 305.296 69.5996C303.796 68.1996 303.096 66.2 303.096 63.5C299.196 69.4 293.595 72.2998 286.195 72.2998C280.395 72.2998 275.795 70.9998 272.396 68.2998C268.896 65.6998 267.195 61.9998 267.195 57.2998C267.195 52.0999 268.996 48.0002 272.796 45.2002C276.496 42.4003 281.896 40.9004 289.096 40.9004H301.995V37.7998C301.995 34.9999 300.995 32.6996 298.995 31.0996C296.995 29.4998 294.195 28.5996 290.695 28.5996C287.495 28.5996 284.895 29.3002 282.896 30.7002C280.896 32.1001 279.696 33.8998 279.296 36.0996H268.695C269.195 30.9999 271.495 27.0001 275.495 24.2002C279.495 21.4002 284.695 19.9004 291.195 19.9004ZM288.596 48.9004C285.196 48.9004 282.696 49.6004 280.896 50.9004C279.096 52.2003 278.195 54.0999 278.195 56.5996C278.195 58.7996 278.995 60.6004 280.695 61.9004C282.395 63.3003 284.695 63.9004 287.695 63.9004C292.095 63.9004 295.596 62.6998 298.096 60.2998C300.596 57.8999 301.895 54.7 301.995 50.7002V48.9004H288.596Z" fill="#0A0A0A"/>
<path d="M333.078 47.5996C333.078 52.5995 334.078 56.4 336.078 59C338.078 61.6 340.979 62.9004 344.979 62.9004C349.078 62.9003 352.279 61.4003 354.679 58.4004C356.979 55.4005 358.179 51.2002 358.179 45.9004V20.5H368.979V71.7002H359.479L358.278 65.2002C354.378 70.0001 349.078 72.2998 342.479 72.2998C336.479 72.2998 331.578 70.5002 327.878 66.7002C324.078 63.0002 322.278 57 322.278 48.7002V20.5H333.078V47.5996Z" fill="#0A0A0A"/>
<path d="M398.321 19.7998C404.721 19.7998 410.021 21.2996 414.021 24.0996C418.021 26.9996 420.221 31.0002 420.621 36.2002H410.121C409.821 33.9002 408.621 32 406.621 30.5C404.521 29.0001 401.921 28.2002 398.821 28.2002C395.621 28.2002 393.122 28.8001 391.222 30C389.222 31.2 388.321 32.9004 388.321 34.9004C388.321 36.5002 388.722 37.6005 389.722 38.4004C390.722 39.2001 391.921 39.7 393.421 40C394.821 40.3 397.221 40.6 400.521 41C404.921 41.5 408.621 42.2002 411.621 43.2002C414.621 44.2002 417.021 45.6999 418.821 47.7998C420.621 49.8998 421.521 52.6999 421.521 56.2998C421.521 59.4997 420.522 62.3999 418.722 64.7998C416.822 67.1998 414.221 69.1004 411.021 70.4004C407.722 71.7004 404.021 72.2998 400.021 72.2998C393.122 72.2998 387.521 70.8002 383.321 67.7002C379.121 64.6002 376.921 60.2998 376.821 54.7998H387.222C387.422 57.4998 388.621 59.7004 390.921 61.4004C393.221 63.1003 396.221 63.9003 399.921 63.9004C403.121 63.9004 405.821 63.2996 407.821 62.0996C409.821 60.8996 410.921 59.1996 410.921 57.0996C410.921 55.3999 410.421 54.1001 409.521 53.2002C408.522 52.4003 407.321 51.8004 405.722 51.4004C404.122 51.0004 401.721 50.6002 398.521 50.2002C394.021 49.7002 390.321 48.9996 387.421 48.0996C384.521 47.1996 382.221 45.7997 380.421 43.7998C378.621 41.7998 377.821 39.1996 377.821 35.7998C377.821 32.7 378.621 29.8999 380.421 27.5C382.221 25.1 384.622 23.1998 387.722 21.7998C390.822 20.4999 394.321 19.7998 398.321 19.7998Z" fill="#0A0A0A"/>
<path d="M434.498 58.7002C436.498 58.7002 438.098 59.3997 439.498 60.5996C440.798 61.8996 441.498 63.5 441.498 65.5C441.498 67.5 440.798 69.2004 439.498 70.4004C438.098 71.7003 436.498 72.2998 434.498 72.2998C432.498 72.2998 430.798 71.7002 429.498 70.4004C428.198 69.2004 427.598 67.5 427.598 65.5C427.598 63.5 428.198 61.8996 429.498 60.5996C430.798 59.3998 432.498 58.7002 434.498 58.7002Z" fill="#0A0A0A"/>
<path fill-rule="evenodd" clip-rule="evenodd" d="M496.536 71.7002H487.136L485.836 64C481.736 69.5999 476.136 72.2998 469.136 72.2998C464.436 72.2998 460.236 71.3001 456.636 69.2002C452.936 67.1002 450.036 64.0995 448.036 60.0996C445.936 56.0997 444.937 51.4995 444.937 46.0996C444.937 40.8999 445.936 36.4002 448.036 32.4004C450.136 28.4004 453.036 25.4002 456.736 23.2002C460.336 21.0003 464.536 19.9005 469.136 19.9004C472.836 19.9004 476.137 20.6 478.937 22C481.736 23.3999 483.936 25.1998 485.736 27.5996V1.7002H496.536V71.7002ZM470.937 29.0996C466.437 29.0996 462.836 30.7004 460.136 33.9004C457.336 37.1002 456.036 41.1 456.036 46.0996C456.036 51.1995 457.336 55.3 460.136 58.5C462.836 61.7 466.437 63.2002 470.937 63.2002C475.336 63.2001 478.936 61.6999 481.736 58.5C484.436 55.4 485.836 51.2998 485.836 46.2998C485.836 41.2001 484.436 37.1003 481.736 33.9004C478.936 30.7005 475.336 29.0997 470.937 29.0996Z" fill="#0A0A0A"/>
<path fill-rule="evenodd" clip-rule="evenodd" d="M529.09 19.9004C533.99 19.9004 538.29 20.9004 542.09 22.9004C545.89 24.9004 548.79 27.8004 550.99 31.4004C553.19 35.1003 554.29 39.4 554.39 44.2998C554.39 45.6998 554.29 47.0004 554.09 48.4004H515.49V49C515.69 53.5 517.09 56.9996 519.69 59.5996C522.19 62.1996 525.59 63.5 529.79 63.5C533.09 63.5 535.89 62.8002 538.19 61.2002C540.39 59.6002 541.89 57.3999 542.69 54.5H553.49C552.49 59.7 549.99 63.9998 545.89 67.2998C541.79 70.6997 536.69 72.2998 530.59 72.2998C525.19 72.2998 520.59 71.2996 516.59 69.0996C512.59 66.8997 509.59 63.9002 507.39 59.9004C505.19 56.0004 504.19 51.4001 504.19 46.2002C504.19 41.0003 505.19 36.4003 507.29 32.4004C509.39 28.4005 512.29 25.4002 516.09 23.2002C519.89 21.0002 524.19 19.9004 529.09 19.9004ZM529.49 28.5996C525.89 28.5996 522.89 29.7004 520.29 31.9004C517.69 34.1004 516.29 36.9001 515.89 40.5H543.39C542.89 36.8 541.39 33.8998 538.89 31.7998C536.39 29.7 533.29 28.5996 529.49 28.5996Z" fill="#0A0A0A"/>
<path d="M581.528 19.7998C587.928 19.7998 593.229 21.2996 597.229 24.0996C601.229 26.9996 603.428 31.0002 603.828 36.2002H593.328C593.028 33.9002 591.828 32 589.828 30.5C587.728 29.0001 585.128 28.2002 582.028 28.2002C578.828 28.2002 576.329 28.8001 574.429 30C572.429 31.2 571.528 32.9004 571.528 34.9004C571.528 36.5002 571.929 37.6005 572.929 38.4004C573.929 39.2001 575.128 39.7 576.628 40C578.028 40.3 580.429 40.6 583.729 41C588.128 41.5 591.828 42.2002 594.828 43.2002C597.828 44.2002 600.228 45.6999 602.028 47.7998C603.828 49.8998 604.728 52.6999 604.729 56.2998C604.729 59.4997 603.729 62.3999 601.929 64.7998C600.029 67.1998 597.429 69.1004 594.229 70.4004C590.929 71.7004 587.228 72.2998 583.229 72.2998C576.329 72.2998 570.728 70.8002 566.528 67.7002C562.328 64.6002 560.128 60.2998 560.028 54.7998H570.429C570.629 57.4998 571.828 59.7004 574.128 61.4004C576.428 63.1003 579.428 63.9003 583.128 63.9004C586.328 63.9004 589.028 63.2996 591.028 62.0996C593.028 60.8996 594.128 59.1996 594.128 57.0996C594.128 55.3999 593.628 54.1001 592.729 53.2002C591.729 52.4003 590.528 51.8004 588.929 51.4004C587.329 51.0004 584.928 50.6002 581.729 50.2002C577.229 49.7002 573.528 48.9996 570.628 48.0996C567.728 47.1996 565.428 45.7997 563.628 43.7998C561.828 41.7998 561.028 39.1996 561.028 35.7998C561.028 32.7 561.828 29.8999 563.628 27.5C565.428 25.1 567.829 23.1998 570.929 21.7998C574.029 20.4999 577.529 19.7998 581.528 19.7998Z" fill="#0A0A0A"/>
<path fill-rule="evenodd" clip-rule="evenodd" d="M1013.84 19.9004C1020.64 19.9004 1025.94 21.5002 1029.74 24.7002C1033.44 27.9002 1035.34 32.5001 1035.34 38.5V58.7002C1035.34 61.1001 1036.44 62.2998 1038.74 62.2998H1040.84V71.7002H1035.14C1031.74 71.7001 1029.34 70.9995 1027.94 69.5996C1026.44 68.1996 1025.74 66.2 1025.74 63.5C1021.84 69.4 1016.24 72.2998 1008.84 72.2998C1003.04 72.2998 998.44 70.9998 995.04 68.2998C991.54 65.6998 989.84 61.9998 989.84 57.2998C989.84 52.0999 991.64 48.0002 995.44 45.2002C999.14 42.4003 1004.54 40.9004 1011.74 40.9004H1024.64V37.7998C1024.64 34.9999 1023.64 32.6996 1021.64 31.0996C1019.64 29.4998 1016.84 28.5996 1013.34 28.5996C1010.14 28.5996 1007.54 29.3002 1005.54 30.7002C1003.54 32.1001 1002.34 33.8998 1001.94 36.0996H991.34C991.84 30.9999 994.14 27.0001 998.14 24.2002C1002.14 21.4002 1007.34 19.9004 1013.84 19.9004ZM1011.24 48.9004C1007.84 48.9004 1005.34 49.6004 1003.54 50.9004C1001.74 52.2003 1000.84 54.0999 1000.84 56.5996C1000.84 58.7996 1001.64 60.6004 1003.34 61.9004C1005.04 63.3003 1007.34 63.9004 1010.34 63.9004C1014.74 63.9004 1018.24 62.6998 1020.74 60.2998C1023.24 57.8999 1024.54 54.7 1024.64 50.7002V48.9004H1011.24Z" fill="#0A0A0A"/>
<path d="M1092.4 58.7002C1094.4 58.7002 1096 59.3997 1097.4 60.5996C1098.7 61.8996 1099.4 63.5 1099.4 65.5C1099.4 67.5 1098.7 69.2004 1097.4 70.4004C1096 71.7003 1094.4 72.2998 1092.4 72.2998C1090.4 72.2998 1088.7 71.7002 1087.4 70.4004C1086.1 69.2004 1085.5 67.5 1085.5 65.5C1085.5 63.5 1086.1 61.8996 1087.4 60.5996C1088.7 59.3998 1090.4 58.7002 1092.4 58.7002Z" fill="#0A0A0A"/>
<path d="M1128.63 19.9004C1135.03 19.9004 1140.23 21.6 1144.33 25C1148.33 28.4 1150.93 32.9003 1151.93 38.7002H1140.83C1140.03 35.8002 1138.63 33.5002 1136.43 31.7002C1134.23 30.0003 1131.53 29.0997 1128.33 29.0996C1123.94 29.0996 1120.43 30.7 1117.83 33.7998C1115.23 36.9998 1113.93 41 1113.93 46C1113.93 51.1 1115.23 55.2004 1117.83 58.4004C1120.43 61.6001 1123.94 63.0996 1128.33 63.0996C1131.63 63.0995 1134.43 62.2999 1136.63 60.5C1138.83 58.7 1140.23 56.2998 1140.93 53.2998H1151.93C1150.93 59.2998 1148.33 63.8998 1144.23 67.2998C1140.03 70.6997 1134.73 72.2997 1128.33 72.2998C1123.23 72.2998 1118.73 71.2996 1114.93 69.0996C1111.03 66.8996 1108.03 63.7998 1105.93 59.7998C1103.83 55.7998 1102.83 51.1999 1102.83 46C1102.83 40.8 1103.83 36.2998 1106.03 32.2998C1108.13 28.3999 1111.13 25.4002 1115.03 23.2002C1118.93 21.0002 1123.43 19.9004 1128.63 19.9004Z" fill="#0A0A0A"/>
<path fill-rule="evenodd" clip-rule="evenodd" d="M1182.92 19.9004C1188.01 19.9004 1192.51 21.0003 1196.51 23.2002C1200.51 25.4002 1203.51 28.5 1205.71 32.5C1207.91 36.4999 1209.01 40.9998 1209.01 46.0996C1209.01 51.2996 1207.91 55.9004 1205.71 59.9004C1203.51 63.9002 1200.51 66.8997 1196.51 69.0996C1192.51 71.2995 1188.01 72.2998 1182.92 72.2998C1177.72 72.2998 1173.21 71.2996 1169.21 69.0996C1165.22 66.8996 1162.21 63.9002 1160.01 59.9004C1157.81 55.9004 1156.82 51.2996 1156.82 46.0996C1156.82 40.9998 1157.81 36.4999 1160.01 32.5C1162.21 28.5001 1165.21 25.4002 1169.21 23.2002C1173.21 21.0002 1177.72 19.9004 1182.92 19.9004ZM1182.92 29.0996C1178.32 29.0996 1174.71 30.7004 1172.01 33.9004C1169.21 37.1002 1167.92 41.1 1167.92 46.0996C1167.92 51.0996 1169.21 55.2004 1172.01 58.4004C1174.71 61.6004 1178.32 63.0996 1182.92 63.0996C1187.42 63.0996 1191.02 61.6004 1193.82 58.4004C1196.62 55.2004 1198.01 51.0996 1198.01 46.0996C1198.01 41.1 1196.62 37.1002 1193.82 33.9004C1191.02 30.7004 1187.42 29.0996 1182.92 29.0996Z" fill="#0A0A0A"/>
<path d="M66.6826 71.7002H55.8828V1.7002H66.6826V71.7002Z" fill="#0A0A0A"/>
<path d="M87.0693 71.7002H76.2695V20.5H87.0693V71.7002Z" fill="#0A0A0A"/>
<path d="M124.656 11.2002H115.757C113.957 11.2002 112.756 11.6004 111.956 12.4004C111.156 13.2004 110.856 14.5005 110.856 16.2002V20.5H124.557V30H110.856V71.7002H99.9561V30H91.0566V20.5H99.9561V15.4004C99.9561 10.9006 101.056 7.50019 103.456 5.2002C105.756 2.9002 109.357 1.7002 114.257 1.7002H124.656V11.2002Z" fill="#0A0A0A"/>
<path d="M153.558 11.2002H144.757C142.957 11.2003 141.757 11.6005 140.957 12.4004C140.157 13.2004 139.757 14.5004 139.757 16.2002V20.5H153.457V30H139.757V71.7002H128.957V15.4004C128.957 10.9005 130.057 7.50019 132.457 5.2002C134.757 2.90026 138.357 1.70026 143.257 1.7002H153.558V11.2002Z" fill="#0A0A0A"/>
<path d="M168.64 71.7002H157.84V20.5H168.64V71.7002Z" fill="#0A0A0A"/>
<path d="M189.026 28.2002C190.426 25.8002 192.327 23.9996 194.727 22.5996C197.027 21.1996 200.127 20.5 204.127 20.5H206.526V30.5996H201.727C197.227 30.5997 194.026 32.1 192.026 35C190.026 37.9 189.026 41.6001 189.026 46V71.7002H178.227V20.5H187.827L189.026 28.2002Z" fill="#0A0A0A"/>
<path d="M623.288 71.7002H612.488V20.5H623.288V71.7002Z" fill="#0A0A0A"/>
<path d="M719.129 19.9004C725.129 19.9004 730.129 21.8001 733.929 25.5C737.729 29.3 739.729 35.3 739.729 43.5V71.7002H728.829V44.0996C728.829 39.2999 727.729 35.5999 725.729 33C723.629 30.5 720.629 29.2002 716.629 29.2002C712.329 29.2002 708.929 30.7002 706.529 33.7002C704.129 36.7002 702.929 40.7004 702.929 45.9004V71.7002H692.129V20.5H701.529L702.729 27.2002C706.529 22.4003 712.029 19.9004 719.129 19.9004Z" fill="#0A0A0A"/>
<path d="M964.05 19.9004C969.65 19.9005 974.149 21.8005 977.749 25.4004C981.249 29.0004 983.05 34.7999 983.05 42.7998V71.7002H972.249V42.9004C972.249 38.5006 971.35 35.1002 969.55 32.7002C967.75 30.4003 965.05 29.2003 961.55 29.2002C957.75 29.2002 954.849 30.6002 952.649 33.2002C950.449 35.8002 949.449 39.4001 949.449 44V71.7002H938.55V42.9004C938.55 38.4004 937.549 35.0002 935.749 32.7002C933.949 30.4002 931.249 29.2002 927.749 29.2002C924.049 29.2003 921.149 30.5999 918.949 33.2998C916.749 36.0998 915.749 39.6999 915.749 44.2998V71.7002H904.949V20.5H914.35L915.55 27.2002C919.15 22.4002 924.15 20.0004 930.55 19.9004C934.15 19.9005 937.25 20.7003 940.05 22.2002C942.75 23.8002 944.85 26.1003 946.35 29.2002C948.15 26.3003 950.449 24.0004 953.449 22.4004C956.349 20.8004 959.85 19.9004 964.05 19.9004Z" fill="#0A0A0A"/>
<path d="M1056.52 71.7002H1045.72V20.5H1056.52V71.7002Z" fill="#0A0A0A"/>
<path d="M1076.91 71.7002H1066.11V1.7002H1076.91V71.7002Z" fill="#0A0A0A"/>
<path d="M1275.8 19.9004C1281.4 19.9005 1285.9 21.8005 1289.5 25.4004C1293 29.0004 1294.8 34.7999 1294.8 42.7998V71.7002H1284V42.9004C1284 38.5006 1283.1 35.1002 1281.3 32.7002C1279.5 30.4003 1276.8 29.2003 1273.3 29.2002C1269.5 29.2002 1266.6 30.6002 1264.4 33.2002C1262.2 35.8002 1261.2 39.4001 1261.2 44V71.7002H1250.3V42.9004C1250.3 38.4004 1249.3 35.0002 1247.5 32.7002C1245.7 30.4003 1243 29.2002 1239.5 29.2002C1235.8 29.2003 1232.9 30.5999 1230.7 33.2998C1228.5 36.0998 1227.5 39.6999 1227.5 44.2998V71.7002H1216.7V20.5H1226.1L1227.3 27.2002C1230.9 22.4002 1235.9 20.0004 1242.3 19.9004C1245.9 19.9005 1249 20.7003 1251.8 22.2002C1254.5 23.8002 1256.6 26.1003 1258.1 29.2002C1259.9 26.3003 1262.2 24.0004 1265.2 22.4004C1268.1 20.8004 1271.6 19.9004 1275.8 19.9004Z" fill="#0A0A0A"/>
<path d="M81.6699 0C83.4698 4.94478e-05 85.0702 0.700431 86.3701 1.90039C87.5699 3.10034 88.2695 4.70019 88.2695 6.5C88.2695 8.39995 87.5701 10.0002 86.3701 11.2002C85.0702 12.4001 83.4698 13 81.6699 13C79.77 13 78.1697 12.4001 76.9697 11.2002C75.6697 10.0002 75.0693 8.4 75.0693 6.5C75.0693 4.70009 75.6699 3.10037 76.9697 1.90039C78.1697 0.700388 79.7699 0 81.6699 0Z" fill="#0A0A0A"/>
<path d="M163.24 0C165.04 5.14256e-05 166.64 0.700432 167.94 1.90039C169.14 3.10034 169.84 4.70019 169.84 6.5C169.84 8.39995 169.14 10.0002 167.94 11.2002C166.64 12.4001 165.04 13 163.24 13C161.34 13 159.74 12.4001 158.54 11.2002C157.24 10.0002 156.64 8.4 156.64 6.5C156.64 4.70009 157.24 3.10037 158.54 1.90039C159.74 0.700388 161.34 0 163.24 0Z" fill="#0A0A0A"/>
<path d="M617.889 0C619.689 4.35142e-05 621.289 0.700426 622.589 1.90039C623.789 3.10034 624.488 4.7002 624.488 6.5C624.488 8.39994 623.789 10.0002 622.589 11.2002C621.289 12.4002 619.689 13 617.889 13C615.989 13 614.388 12.4001 613.188 11.2002C611.888 10.0002 611.288 8.4 611.288 6.5C611.288 4.70009 611.889 3.10037 613.188 1.90039C614.388 0.700388 615.989 0 617.889 0Z" fill="#0A0A0A"/>
<path d="M1051.12 0C1052.92 4.35142e-05 1054.52 0.700426 1055.82 1.90039C1057.02 3.10034 1057.72 4.7002 1057.72 6.5C1057.72 8.39994 1057.02 10.0002 1055.82 11.2002C1054.52 12.4002 1052.92 13 1051.12 13C1049.22 13 1047.62 12.4001 1046.42 11.2002C1045.12 10.0002 1044.52 8.4 1044.52 6.5C1044.52 4.70008 1045.12 3.10037 1046.42 1.90039C1047.62 0.700388 1049.22 0 1051.12 0Z" fill="#0A0A0A"/>
</svg>
