<svg width="1047" height="96" viewBox="0 0 1047 96" fill="none" xmlns="http://www.w3.org/2000/svg">
<g clip-path="url(#clip0_120_4172)">
<path d="M17 0L-32 96" stroke="#2C2C2C"/>
<path d="M35 0L-14 96" stroke="#2C2C2C"/>
<path d="M53 0L4 96" stroke="#2C2C2C"/>
<path d="M71 0L22 96" stroke="#2C2C2C"/>
<path d="M89 0L40 96" stroke="#2C2C2C"/>
<path d="M107 0L58 96" stroke="#2C2C2C"/>
<path d="M125 0L76 96" stroke="#2C2C2C"/>
<path d="M143 0L94 96" stroke="#2C2C2C"/>
<path d="M161 0L112 96" stroke="#2C2C2C"/>
<path d="M179 0L130 96" stroke="#2C2C2C"/>
<path d="M197 0L148 96" stroke="#2C2C2C"/>
<path d="M215 0L166 96" stroke="#2C2C2C"/>
<path d="M233 0L184 96" stroke="#2C2C2C"/>
<path d="M251 0L202 96" stroke="#2C2C2C"/>
<path d="M269 0L220 96" stroke="#2C2C2C"/>
<path d="M287 0L238 96" stroke="#2C2C2C"/>
<path d="M305 0L256 96" stroke="#2C2C2C"/>
<path d="M323 0L274 96" stroke="#2C2C2C"/>
<path d="M341 0L292 96" stroke="#2C2C2C"/>
<path d="M359 0L310 96" stroke="#2C2C2C"/>
<path d="M377 0L328 96" stroke="#2C2C2C"/>
<path d="M395 0L346 96" stroke="#2C2C2C"/>
<path d="M413 0L364 96" stroke="#2C2C2C"/>
<path d="M431 0L382 96" stroke="#2C2C2C"/>
<path d="M449 0L400 96" stroke="#2C2C2C"/>
<path d="M467 0L418 96" stroke="#2C2C2C"/>
<path d="M485 0L436 96" stroke="#2C2C2C"/>
<path d="M503 0L454 96" stroke="#2C2C2C"/>
<path d="M521 0L472 96" stroke="#2C2C2C"/>
<path d="M539 0L490 96" stroke="#2C2C2C"/>
<path d="M557 0L508 96" stroke="#2C2C2C"/>
<path d="M575 0L526 96" stroke="#2C2C2C"/>
<path d="M593 0L544 96" stroke="#2C2C2C"/>
<path d="M611 0L562 96" stroke="#2C2C2C"/>
<path d="M629 0L580 96" stroke="#2C2C2C"/>
<path d="M647 0L598 96" stroke="#2C2C2C"/>
<path d="M665 0L616 96" stroke="#2C2C2C"/>
<path d="M683 0L634 96" stroke="#2C2C2C"/>
<path d="M701 0L652 96" stroke="#2C2C2C"/>
<path d="M719 0L670 96" stroke="#2C2C2C"/>
<path d="M737 0L688 96" stroke="#2C2C2C"/>
<path d="M755 0L706 96" stroke="#2C2C2C"/>
<path d="M773 0L724 96" stroke="#2C2C2C"/>
<path d="M791 0L742 96" stroke="#2C2C2C"/>
<path d="M809 0L760 96" stroke="#2C2C2C"/>
<path d="M827 0L778 96" stroke="#2C2C2C"/>
<path d="M845 0L796 96" stroke="#2C2C2C"/>
<path d="M863 0L814 96" stroke="#2C2C2C"/>
<path d="M881 0L832 96" stroke="#2C2C2C"/>
<path d="M899 0L850 96" stroke="#2C2C2C"/>
<path d="M917 0L868 96" stroke="#2C2C2C"/>
<path d="M935 0L886 96" stroke="#2C2C2C"/>
<path d="M953 0L904 96" stroke="#2C2C2C"/>
<path d="M971 0L922 96" stroke="#2C2C2C"/>
<path d="M989 0L940 96" stroke="#2C2C2C"/>
<path d="M1007 0L958 96" stroke="#2C2C2C"/>
<path d="M1025 0L976 96" stroke="#2C2C2C"/>
<path d="M1043 0L994 96" stroke="#2C2C2C"/>
<path d="M1061 0L1012 96" stroke="#2C2C2C"/>
<path d="M1079 0L1030 96" stroke="#2C2C2C"/>
</g>
<defs>
<clipPath id="clip0_120_4172">
<rect width="1047" height="96" fill="white"/>
</clipPath>
</defs>
</svg>
