<svg width="17" height="17" viewBox="0 0 17 17" fill="none" xmlns="http://www.w3.org/2000/svg">
<path d="M8.5 0C3.81305 0 0 3.81309 0 8.5C0 13.1869 3.81305 17 8.5 17C13.187 17 17 13.1869 17 8.5C17 3.81309 13.187 0 8.5 0ZM14.0391 4.0088C14.9933 5.18342 15.5808 6.66602 15.6297 8.28218C13.8621 7.91624 12.2615 7.95919 10.8485 8.23623C10.5926 7.63792 10.3278 7.0679 10.0605 6.52917C11.5993 5.86626 12.9389 5.01955 14.0391 4.0088ZM13.0816 3.03562C11.9895 4.03246 10.7239 4.77053 9.42804 5.31543C8.47689 3.57607 7.56687 2.26625 7.0125 1.52191C7.49253 1.41964 7.98994 1.36477 8.5 1.36477C10.243 1.36477 11.8411 1.99385 13.0816 3.03562ZM5.63409 1.96764C6.05271 2.51009 7.04981 3.86832 8.12087 5.80075C5.42902 6.67775 2.81705 6.82551 1.56192 6.83925C2.08508 4.65379 3.61552 2.85675 5.63409 1.96764ZM1.37222 8.20748C1.38569 8.20748 1.3987 8.20757 1.41244 8.20757C2.2797 8.20757 3.86864 8.14925 5.73927 7.80815C6.80651 7.61353 7.81853 7.35159 8.76813 7.02695C9.01533 7.51964 9.26108 8.03934 9.49937 8.58407C8.16973 9.01216 7.04844 9.62812 6.16026 10.2397C4.67085 11.2654 3.62744 12.4033 3.0577 13.1069C2.00283 11.8629 1.36476 10.255 1.36476 8.5C1.36476 8.40192 1.36822 8.30466 1.37222 8.20748ZM4.04115 14.0646C4.53164 13.4469 5.53001 12.3228 6.9742 11.3365C7.95564 10.6661 8.97102 10.168 10.0163 9.84112C10.6228 11.4132 11.1406 13.1502 11.4493 14.9945C10.5497 15.4047 9.55159 15.6352 8.5 15.6352C6.81388 15.6352 5.26361 15.0461 4.04115 14.0646ZM12.7049 14.2596C12.3867 12.5658 11.9123 10.9731 11.3637 9.51749C12.713 9.28984 14.1075 9.33679 15.5398 9.65851C15.2309 11.541 14.1834 13.1773 12.7049 14.2596Z" fill="#262626"/>
</svg>
