<svg width="15" height="15" viewBox="0 0 15 15" fill="none" xmlns="http://www.w3.org/2000/svg">
<g clip-path="url(#clip0_122_5699)">
<path d="M14.0625 7.50006C14.064 7.69232 14.0055 7.88028 13.8953 8.03779C13.785 8.1953 13.6284 8.31455 13.4473 8.37896L9.73007 9.73072L8.3789 13.4473C8.31231 13.6267 8.1924 13.7815 8.03528 13.8907C7.87817 14 7.69137 14.0586 7.5 14.0586C7.30862 14.0586 7.12183 14 6.96471 13.8907C6.8076 13.7815 6.68769 13.6267 6.62109 13.4473L5.26992 9.73014L1.55273 8.37896C1.37332 8.31237 1.21858 8.19246 1.10931 8.03534C1.00004 7.87823 0.941467 7.69143 0.941467 7.50006C0.941467 7.30868 1.00004 7.12189 1.10931 6.96477C1.21858 6.80766 1.37332 6.68775 1.55273 6.62115L5.26992 5.26998L6.62109 1.55279C6.68769 1.37338 6.8076 1.21864 6.96471 1.10937C7.12183 1.0001 7.30862 0.941528 7.5 0.941528C7.69137 0.941528 7.87817 1.0001 8.03528 1.10937C8.1924 1.21864 8.31231 1.37338 8.3789 1.55279L9.73066 5.26998L13.4473 6.62115C13.6284 6.68556 13.785 6.80481 13.8953 6.96233C14.0055 7.11984 14.064 7.30779 14.0625 7.50006Z" fill="#FFFBEF"/>
</g>
<defs>
<clipPath id="clip0_122_5699">
<rect width="15" height="15" fill="white"/>
</clipPath>
</defs>
</svg>
