<svg width="15" height="15" viewBox="0 0 15 15" fill="none" xmlns="http://www.w3.org/2000/svg">
<path d="M13.1248 6.09362V9.0778C13.1248 11.7848 10.9656 14.0319 8.2615 14.0618C7.6052 14.0706 6.9538 13.9477 6.34589 13.7002C5.73798 13.4527 5.18593 13.0857 4.72244 12.621C3.44451 11.2692 2.00076 7.96862 2.00076 7.96862C1.93725 7.8587 1.89673 7.73704 1.88164 7.611C1.86656 7.48496 1.87723 7.35717 1.913 7.23537C1.94878 7.11358 2.00892 7.00032 2.08977 6.90246C2.17063 6.8046 2.27051 6.72418 2.38337 6.66608C2.8322 6.4317 3.38533 6.61686 3.63728 7.05397L4.86775 9.18912C4.90197 9.2506 4.9536 9.30059 5.01616 9.3328C5.07871 9.36502 5.14939 9.37802 5.21931 9.37018H5.22634C5.33894 9.3508 5.44093 9.29188 5.51396 9.20402C5.587 9.11616 5.6263 9.00512 5.62478 8.89088V1.87487C5.62463 1.74786 5.65029 1.62215 5.7002 1.50536C5.75011 1.38858 5.82323 1.28315 5.91512 1.19548C6.00701 1.10781 6.11576 1.03972 6.23476 0.99535C6.35376 0.950981 6.48054 0.931253 6.6074 0.937366C7.11189 0.960803 7.49978 1.39557 7.49978 1.90006V6.09362C7.49964 6.15788 7.51271 6.22148 7.53819 6.28047C7.56366 6.33947 7.60099 6.39259 7.64786 6.43655C7.69474 6.48051 7.75014 6.51437 7.81065 6.53601C7.87116 6.55765 7.93546 6.56662 7.99958 6.56237C8.12012 6.55201 8.23227 6.4964 8.31347 6.40672C8.39467 6.31704 8.43891 6.19994 8.43728 6.07897V5.15612C8.43713 5.02911 8.46279 4.9034 8.5127 4.78661C8.56261 4.66983 8.63573 4.5644 8.72762 4.47673C8.81951 4.38906 8.92826 4.32097 9.04726 4.2766C9.16626 4.23223 9.29304 4.2125 9.4199 4.21862C9.92439 4.24205 10.3123 4.67682 10.3123 5.18131V6.56237C10.3121 6.62663 10.3252 6.69023 10.3507 6.74922C10.3762 6.80822 10.4135 6.86134 10.4604 6.9053C10.5072 6.94926 10.5626 6.98312 10.6231 7.00476C10.6837 7.0264 10.748 7.03537 10.8121 7.03112C10.9326 7.02076 11.0448 6.96515 11.126 6.87547C11.2072 6.78579 11.2514 6.66869 11.2498 6.54772V6.12115C11.2498 5.61666 11.6377 5.18365 12.1422 5.15846C12.2688 5.15236 12.3954 5.17201 12.5142 5.21624C12.6331 5.26047 12.7417 5.32834 12.8336 5.41576C12.9254 5.50318 12.9986 5.60833 13.0487 5.72484C13.0987 5.84135 13.1246 5.96681 13.1248 6.09362Z" fill="#FFFBEF"/>
</svg>
